<svg xmlns="http://www.w3.org/2000/svg" fill="none" viewBox="0 0 24 24" strokeWidth={1.5} stroke="currentColor" className="w-8 h-8 mb-2 text-purple-500"><path strokeLinecap="round" strokeLinejoin="round" d="m16.023 9.348-4.992 0a.75.75 0 0 1 0-1.5h4.992a.75.75 0 0 1 0 1.5Zm-4.992 1.5a.75.75 0 0 0 0 1.5h4.992a.75.75 0 0 0 0-1.5h-4.992Zm-4.992-1.5a.75.75 0 0 1 0-1.5h4.992a.75.75 0 0 1 0 1.5H6.039Z" /><path strokeLinecap="round" strokeLinejoin="round" d="M21 12a9 9 0 1 1-18 0 9 9 0 0 1 18 0Z" /></svg>